<svg data-name="Group 74734" xmlns="http://www.w3.org/2000/svg" width="97.752" height="97.752" viewBox="0 0 97.752 97.752">
    <path data-name="Path 74751" d="M48.876 97.752a48.876 48.876 0 1 1 48.876-48.876 48.917 48.917 0 0 1-48.876 48.876zm0-91.771a42.942 42.942 0 1 0 42.895 42.988A42.955 42.955 0 0 0 48.876 5.981z" style="fill:#fff"/>
    <g data-name="Group 74658">
        <path data-name="Path 74752" d="M52.1 79.561a4.67 4.67 0 0 1-3.271-1.308l-3.177-2.99-2.24 2.337a5.106 5.106 0 0 1-3.551 1.5 4.371 4.371 0 0 1-3.461-1.315l-.561-.561a3.914 3.914 0 0 1-1.028-1.5 5 5 0 0 1-5.607-.841l-.561-.561a4.34 4.34 0 0 1-1.215-1.869 4.908 4.908 0 0 1-4.766-1.121l-1.4-1.4h.187a4.869 4.869 0 0 1-.841-2.71 4.05 4.05 0 0 1 .374-1.776 3.606 3.606 0 0 1-1.589-1.028l-.748-.561a4.941 4.941 0 0 1-1.5-3.551 5.071 5.071 0 0 1 1.308-3.364l2.617-2.71-5.794-4.953a4.652 4.652 0 0 1-1.676-3.641 4.792 4.792 0 0 1 1.215-3.177l6.635-7.476a5.927 5.927 0 0 1 2.149-1.5 6.476 6.476 0 0 1 4.766-.093l3.645 1.589a5.655 5.655 0 0 0 2.243.374 6.971 6.971 0 0 0 2.243-.374l3.645-1.581a9.373 9.373 0 0 1 3.364-.654 9.188 9.188 0 0 1 3.738.748l1.869.935.374-.28a7.679 7.679 0 0 1 4.205-1.215 6.135 6.135 0 0 1 2.99.654l5.328 2.612a4.073 4.073 0 0 0 1.682.374 3.986 3.986 0 0 0 2.243-.561l5.514-3.364a5.632 5.632 0 0 1 2.71-.748 5.469 5.469 0 0 1 4.205 1.963l5.607 7.2a5.218 5.218 0 0 1 1.121 3.364 5.081 5.081 0 0 1-1.4 3.645l-8.971 10.28.748.654a4.828 4.828 0 0 1 1.589 3.551 4.67 4.67 0 0 1-1.308 3.271l-.561.561a4.916 4.916 0 0 1-2.43 1.4v.561a4.67 4.67 0 0 1-1.308 3.271l-.561.561a4.828 4.828 0 0 1-3.551 1.589 2.323 2.323 0 0 1-.748-.093 4.333 4.333 0 0 1-1.121 2.149l-.561.561a4.828 4.828 0 0 1-3.551 1.589 4.67 4.67 0 0 1-3.271-1.308l-.841-.748a3.92 3.92 0 0 1-.841 1.308l-.561.561a4.77 4.77 0 0 1-3.743 1.77zm-4.39-6.915 3.364 3.177a1.405 1.405 0 0 0 1.026.377 1.548 1.548 0 0 0 1.121-.467l.561-.561a1.405 1.405 0 0 0 .374-1.028 1.5 1.5 0 0 0-.467-1.028l-4.486-4.205.28-.374 1.963-2.149.28.374 8.411 7.757a1.405 1.405 0 0 0 1.028.374 1.548 1.548 0 0 0 1.121-.467l.561-.561a1.405 1.405 0 0 0 .374-1.028 1.724 1.724 0 0 0-.467-1.121l-8.6-8.13 2.243-2.43 9.813 9.065a1.405 1.405 0 0 0 1.028.374 1.548 1.548 0 0 0 1.121-.467l.561-.561a1.405 1.405 0 0 0 .374-1.028 1.548 1.548 0 0 0-.467-1.121L58.457 57.6l2.243-2.43 9.813 9.065a1.587 1.587 0 0 0 2.149-.093l.561-.561a1.405 1.405 0 0 0 .374-1.028 1.548 1.548 0 0 0-.467-1.121l-7.1-6.542c-1.215-1.121-3.458-2.9-4.766-3.925l-6.168-4.392a3.683 3.683 0 0 0-1.869-.561 3.977 3.977 0 0 0-1.589.374l-2.243 1.308a5.024 5.024 0 0 1-2.617.748 5.138 5.138 0 0 1-4.205-2.056l-.561-.654a4.6 4.6 0 0 1-.935-2.8A4.749 4.749 0 0 1 43.131 39l3.084-2.149-.28-.187a5.106 5.106 0 0 0-2.243-.374 4.258 4.258 0 0 0-2.056.374l-3.645 1.589a8.76 8.76 0 0 1-3.645.654 8.76 8.76 0 0 1-3.645-.654l-3.645-1.589a3.32 3.32 0 0 0-.935-.187 3.669 3.669 0 0 0-1.308.28 2.385 2.385 0 0 0-.935.654l-6.633 7.479a1.2 1.2 0 0 0-.374.935 1.332 1.332 0 0 0 .561 1.121l5.981 5.046 1.121-1.121a4.972 4.972 0 0 1 6.916-.187l.561.561a4.847 4.847 0 0 1 1.5 2.9 4.67 4.67 0 0 1 3.271 1.308l.561.561a4.941 4.941 0 0 1 1.5 3.551c0 .374-.093.748-.093 1.121a4.159 4.159 0 0 1 1.95 1.119l.654.654a9.909 9.909 0 0 1 1.4 2.99 4.45 4.45 0 0 1 3.177 1.308l.561.561a4.941 4.941 0 0 1 1.5 3.551 4.142 4.142 0 0 1-.282 1.777zm-5.14-3.925a1.548 1.548 0 0 0-1.121.467l-3.364 3.551a1.405 1.405 0 0 0-.374 1.028 1.548 1.548 0 0 0 .467 1.121l.561.561a1.405 1.405 0 0 0 1.028.374 1.548 1.548 0 0 0 1.121-.467l3.365-3.556a1.405 1.405 0 0 0 .374-1.028 1.548 1.548 0 0 0-.467-1.121l-.561-.561a1.164 1.164 0 0 0-1.029-.369zm-5.233-5.046a1.96 1.96 0 0 0-1.028.374L30.7 69.842a1.579 1.579 0 0 0-.28.935 1.548 1.548 0 0 0 .467 1.121l.561.561a1.5 1.5 0 0 0 2.149-.093l5.42-5.607a1.405 1.405 0 0 0 .374-1.028 1.548 1.548 0 0 0-.467-1.121l-.561-.561a1.96 1.96 0 0 0-1.026-.375zm-13.083 4.672.654.654a1.405 1.405 0 0 0 1.028.374 1.548 1.548 0 0 0 1.121-.467l8.037-8.408a1.405 1.405 0 0 0 .374-1.028A1.548 1.548 0 0 0 35 58.347l-.467-.561a1.584 1.584 0 0 0-2.149 0s-5.046 5.327-8.037 8.411a1.405 1.405 0 0 0-.374 1.028 1.165 1.165 0 0 0 .281 1.122zm3.832-15.794a1.548 1.548 0 0 0-1.121.467l-5.981 6.261a1.48 1.48 0 0 0-.467 1.121 1.548 1.548 0 0 0 .467 1.121l.561.561a1.405 1.405 0 0 0 1.028.374 1.8 1.8 0 0 0 .935-.28c2.9-2.991 6.448-6.729 6.448-6.729a1.866 1.866 0 0 0 .187-.841 2.878 2.878 0 0 0-.467-1.121l-.561-.561a1.96 1.96 0 0 0-1.03-.373zm40.185-.187 3.929 3.645 9.158-10.186a2.518 2.518 0 0 0 .467-1.4 3.042 3.042 0 0 0-.374-1.308l-5.607-7.2a1.859 1.859 0 0 0-1.5-.654 1.579 1.579 0 0 0-.935.28L67.9 38.909a8.021 8.021 0 0 1-4.018 1.028 6.907 6.907 0 0 1-3.177-.654l-5.327-2.617a3.559 3.559 0 0 0-1.5-.28h-.093a4.937 4.937 0 0 0-2.243.561L45 41.526a1.6 1.6 0 0 0-.654 1.215 1.507 1.507 0 0 0 .28.841l.467.654a1.816 1.816 0 0 0 1.5.748 1.579 1.579 0 0 0 .935-.28l2.243-1.308a7.126 7.126 0 0 1 7.2.28l6.168 4.392z" transform="translate(-.89 -2.088)" style="fill:#fff"/>
    </g>
</svg>
