<svg xmlns="http://www.w3.org/2000/svg" width="99.509" height="99.509" viewBox="0 0 99.509 99.509">
    <g data-name="Group 74736">
        <g data-name="Group 74733">
            <path data-name="Path 74741" d="M49.755 99.509a49.755 49.755 0 1 1 49.754-49.754 49.8 49.8 0 0 1-49.754 49.754zm0-93.421A43.714 43.714 0 1 0 93.421 49.85 43.727 43.727 0 0 0 49.755 6.089z" style="fill:#fff"/>
            <g data-name="Group 74657">
                <path data-name="Path 74742" d="M52.336 61.8a7.049 7.049 0 0 0-6.564 4.376 7.2 7.2 0 0 0 1.522 7.8 7.028 7.028 0 0 0 7.8 1.522 7.125 7.125 0 0 0-2.759-13.7zm0 11.892a4.649 4.649 0 0 1-4.376-2.949 4.81 4.81 0 0 1 6.279-6.279 4.744 4.744 0 0 1 2.949 4.376 4.462 4.462 0 0 1-1.427 3.33 4.564 4.564 0 0 1-3.425 1.522z" transform="translate(-2.202 -3.008)" style="fill:#fff"/>
                <path data-name="Path 74743" d="M66.494 63.406h-2.378l1.712-1.712a2.19 2.19 0 0 0 0-2.949l-4.281-4.281a2.1 2.1 0 0 0-1.427-.571 1.936 1.936 0 0 0-1.427.571l-1.808 1.808v-2.379a2.112 2.112 0 0 0-2.092-2.093H48.8a2.112 2.112 0 0 0-2.093 2.093v2.378l-1.712-1.712a2.1 2.1 0 0 0-1.427-.571 1.936 1.936 0 0 0-1.427.571l-4.282 4.281a2.19 2.19 0 0 0 0 2.949l1.712 1.711h-2.378a2.112 2.112 0 0 0-2.093 2.094v5.993a2.112 2.112 0 0 0 2.093 2.093h2.378l-1.712 1.52a2.19 2.19 0 0 0 0 2.949l4.281 4.281a2.1 2.1 0 0 0 1.427.57 1.936 1.936 0 0 0 1.427-.571l1.712-1.712V83.1a2.111 2.111 0 0 0 2.094 2.092h5.993a2.112 2.112 0 0 0 2.092-2.092v-2.38l1.715 1.713a2.1 2.1 0 0 0 1.425.567 1.936 1.936 0 0 0 1.427-.571l4.281-4.281a2.19 2.19 0 0 0 0-2.949L64.02 73.49h2.38a2.111 2.111 0 0 0 2.092-2.09v-6a2.009 2.009 0 0 0-1.998-1.994zm-.381 7.706h-2.758a2.115 2.115 0 0 0-1.427 3.615l1.9 2-3.803 3.803-1.9-1.9a2.232 2.232 0 0 0-2.283-.476 2.069 2.069 0 0 0-1.332 1.9v2.759h-5.33v-2.758a2.081 2.081 0 0 0-1.237-1.9h-.1a2.051 2.051 0 0 0-2.283.476l-1.9 1.9-3.805-3.805 1.9-1.9a2.232 2.232 0 0 0 .476-2.283 2.069 2.069 0 0 0-1.9-1.332h-2.758V65.88h2.759a2.115 2.115 0 0 0 1.427-3.615l-1.9-1.9 3.805-3.805 1.9 1.9a2.232 2.232 0 0 0 2.283.476 2.069 2.069 0 0 0 1.332-1.9v-2.763h5.327v2.759a2.081 2.081 0 0 0 1.237 1.9h.1a2.051 2.051 0 0 0 2.283-.476l2-1.9 3.805 3.805-2 1.9a2.232 2.232 0 0 0-.476 2.283 2.069 2.069 0 0 0 1.9 1.332h2.759z" transform="translate(-1.709 -2.521)" style="fill:#fff"/>
                <path data-name="Path 74744" d="M56.252 23.206a4.787 4.787 0 0 0-1.142-2.759v-5.232a3.615 3.615 0 1 0-7.23 0v5.232a4.787 4.787 0 0 0-1.142 2.759l-10.655 19.5h-3.71V40.33H30v7.135h2.378v-2.378h2.378l-6.093 11.13A5.951 5.951 0 0 0 30 63.543v7.8h2.378v-7.991l10.084-18.17h17.98l10.084 18.17v7.991H72.9v-7.8a5.716 5.716 0 0 0 1.332-7.325zm15.792 37.768L54.92 30.151a1.093 1.093 0 0 0-1.046-.571h-1.237v-1.427a4.437 4.437 0 0 0 2.569-1.712l16.933 30.918a3.146 3.146 0 0 1-.1 3.615zM51.5 21.208a2.4 2.4 0 0 1 2.188 1.427 2.305 2.305 0 0 1-3.044 3.044 2.4 2.4 0 0 1-1.427-2.188 2.2 2.2 0 0 1 2.283-2.283zm0-7.135a1.033 1.033 0 0 1 .856.381 1.417 1.417 0 0 1 .381.856v3.71a5.026 5.026 0 0 0-2.378 0v-3.71a1.079 1.079 0 0 1 1.141-1.237zM30.756 57.359 47.69 26.441a4.759 4.759 0 0 0 2.569 1.712v1.332h-1.237a1.093 1.093 0 0 0-1.046.571L30.851 60.879a3.34 3.34 0 0 1-.1-3.52zm13.128-14.65 5.9-10.75h3.33l5.993 10.75z" transform="translate(-1.361 -.565)" style="fill:#fff"/>
                <path data-name="Path 74745" d="M77.8 71.8h2.378v2.378H77.8z" transform="translate(-3.788 -3.495)" style="fill:#fff"/>
                <path data-name="Path 74746" d="M82.8 71.8h2.378v2.378H82.8z" transform="translate(-4.031 -3.495)" style="fill:#fff"/>
                <path data-name="Path 74747" d="M87.8 71.8h2.378v2.378H87.8z" transform="translate(-4.274 -3.495)" style="fill:#fff"/>
                <path data-name="Path 74748" d="M15.1 71.8h2.378v2.378H15.1z" transform="translate(-.736 -3.495)" style="fill:#fff"/>
                <path data-name="Path 74749" d="M20.1 71.8h2.378v2.378H20.1z" transform="translate(-.979 -3.495)" style="fill:#fff"/>
                <path data-name="Path 74750" d="M25.1 71.8h2.378v2.378H25.1z" transform="translate(-1.223 -3.495)" style="fill:#fff"/>
            </g>
        </g>
    </g>
</svg>
