<svg xmlns="http://www.w3.org/2000/svg" width="97.752" height="97.752" viewBox="0 0 97.752 97.752">
    <g data-name="Group 74735">
        <path data-name="Path 74753" d="M69.593 81.738v2.991H31.838v-2.991h37.755M73.331 78H28.1v10.467h45.138V78z" transform="translate(-1.84 -5.106)" style="fill:#fff"/>
        <path data-name="Path 74754" d="M64.038 67.338v3.084h-25.7v-3.084h25.7m3.738-3.738H34.6v10.56h33.176V63.6z" transform="translate(-2.266 -4.164)" style="fill:#fff"/>
        <path data-name="Path 74755" d="M48.876 97.752a48.876 48.876 0 1 1 48.876-48.876 48.917 48.917 0 0 1-48.876 48.876zm0-91.771a42.942 42.942 0 1 0 42.895 42.988A42.955 42.955 0 0 0 48.876 5.981z" style="fill:#fff"/>
        <g data-name="Group 74659">
            <path data-name="Path 74756" d="m34.213 58.924 6.355-18.971L24.4 28.178h20L50.473 9.3l6.261 18.878h20L60.566 39.953l6.075 18.877-16.168-11.775zm16.26-16.448 9.065 6.635-3.364-10.56 9.065-6.635H54.025l-3.551-10.56-3.364 10.56H35.895l9.065 6.635-3.551 10.56z" transform="translate(-1.597 -.609)" style="fill:#fff"/>
        </g>
    </g>
</svg>
